<svg width="61" height="61" viewBox="0 0 61 61" fill="none" xmlns="http://www.w3.org/2000/svg">
<path fill-rule="evenodd" clip-rule="evenodd" d="M22.875 3.8125C21.1055 3.8125 19.4085 4.51543 18.1573 5.76665C16.9061 7.01787 16.2031 8.71488 16.2031 10.4844V15.25H11.4375C9.41522 15.25 7.47578 16.0533 6.04581 17.4833C4.61585 18.9133 3.8125 20.8527 3.8125 22.875V49.5625C3.8125 51.5848 4.61585 53.5242 6.04581 54.9542C7.47578 56.3842 9.41522 57.1875 11.4375 57.1875H49.5625C51.5848 57.1875 53.5242 56.3842 54.9542 54.9542C56.3842 53.5242 57.1875 51.5848 57.1875 49.5625V22.875C57.1875 20.8527 56.3842 18.9133 54.9542 17.4833C53.5242 16.0533 51.5848 15.25 49.5625 15.25H44.7969V10.4844C44.7969 8.71488 44.0939 7.01787 42.8427 5.76665C41.5915 4.51543 39.8945 3.8125 38.125 3.8125H22.875ZM39.0781 15.25V10.4844C39.0781 10.2316 38.9777 9.98916 38.799 9.81041C38.6202 9.63167 38.3778 9.53125 38.125 9.53125H22.875C22.6222 9.53125 22.3798 9.63167 22.201 9.81041C22.0223 9.98916 21.9219 10.2316 21.9219 10.4844V15.25H39.0781ZM11.4375 20.9688H49.5625C50.0681 20.9688 50.5529 21.1696 50.9104 21.5271C51.2679 21.8846 51.4688 22.3694 51.4688 22.875V26.6875H9.53125V22.875C9.53125 22.3694 9.73209 21.8846 10.0896 21.5271C10.4471 21.1696 10.9319 20.9688 11.4375 20.9688ZM9.53125 32.4062V49.5625C9.53125 50.0681 9.73209 50.5529 10.0896 50.9104C10.4471 51.2679 10.9319 51.4688 11.4375 51.4688H49.5625C50.0681 51.4688 50.5529 51.2679 50.9104 50.9104C51.2679 50.5529 51.4688 50.0681 51.4688 49.5625V32.4062H34.3125V38.125H26.6875V32.4062H9.53125Z" fill="black"/>
</svg>
